<?xml version="1.0" ?><svg width="64px" height="64px" viewBox="0 0 64 64" id="Layer_1" style="enable-background:new 0 0 64 64;" version="1.1" xml:space="preserve" xmlns="http://www.w3.org/2000/svg" xmlns:xlink="http://www.w3.org/1999/xlink"><style type="text/css">
	.st0{fill:#A88C55;}
	.st1{fill:#6B5936;}
	.st2{fill:#A6A6A6;}
	.st3{fill:#4F4228;}
</style><g id="Layer_18"><path class="st0" d="M24,32h-9c-2.8,0-5,2.2-5,5v21h4V38c0-1.1,0.9-2,2-2h8"/><path class="st0" d="M54,42v-5c0-2.8-2.2-5-5-5h-9v4h8c1.1,0,2,0.9,2,2v4"/><polyline class="st0" points="54,58 54,50 50,50 50,58  "/><path class="st1" d="M24,56h16c1.1,0,2,0.9,2,2v4l0,0H22l0,0v-4C22,56.9,22.9,56,24,56z"/><polyline class="st1" points="28,30 24,30 24,38 28,38  "/><rect class="st1" height="4" width="8" x="8" y="58"/><polyline class="st1" points="36,30 40,30 40,38 36,38  "/><rect class="st1" height="4" width="8" x="48" y="58"/><rect class="st0" height="38" width="8" x="28" y="18"/><path class="st2" d="M43,4c-0.6,0-1.2,0.1-1.7,0.4c-1.4-2.4-4.5-3.1-6.9-1.7c-1.8,1.1-2.7,3.2-2.3,5.3c0,0-0.1,0-0.1,0   c-1.7,0-3,1.3-3,3c0,1.7,1.3,3,3,3c1.4,0,2.7-1,3-2.5c1.7,0.8,3.8,0.5,5.2-0.7c1.6,1.6,4.1,1.6,5.7,0c1.6-1.6,1.6-4.1,0-5.7   C45.1,4.4,44.1,4,43,4z"/><rect class="st3" height="2" width="8" x="28" y="23"/><rect class="st3" height="2" width="8" x="28" y="27"/><rect class="st3" height="2" width="8" x="28" y="31"/><rect class="st3" height="2" width="8" x="28" y="35"/><rect class="st3" height="2" width="8" x="28" y="39"/><rect class="st3" height="2" width="8" x="28" y="43"/><rect class="st3" height="2" width="8" x="28" y="47"/><rect class="st3" height="2" width="8" x="28" y="51"/><circle class="st0" cx="52" cy="46" r="4"/><polygon class="st3" points="53,45 53,42 51,42 51,45 48,45 48,47 56,47 56,45  "/><path class="st1" d="M52,51c-2.8,0-5-2.2-5-5s2.2-5,5-5s5,2.2,5,5C57,48.8,54.8,51,52,51z M52,43c-1.7,0-3,1.3-3,3s1.3,3,3,3   s3-1.3,3-3S53.7,43,52,43z"/></g></svg>