<svg xmlns="http://www.w3.org/2000/svg" xmlns:xlink="http://www.w3.org/1999/xlink"
	 width="100%"
	 height="100%"
	 fill="none">

	<!--Scale 10% iPhone 14 pro max-->
	<svg width="129" height="279.6" viewBox="0 0 1290 2796">
		<svg width="1290" height="2796">
			<rect width="100%" height="100%" fill="pink" fill-opacity="70%" />
			<rect width="129" height="129" fill="black" />
		</svg>
	</svg>

	<!--Scale 10% Samsung Galaxy Ultra-->
	<svg x="140" width="144" height="308.8" viewBox="0 0 1440 3088">
		<svg width="1440" height="3088">
			<rect width="100%" height="100%" fill="pink" fill-opacity="70%" />
			<rect width="144" height="144" fill="black" />
		</svg>
	</svg>

	<!--Scale 10% Generic-->
	<svg x="290" width="100" height="200" viewBox="0 0 1000 2000">
		<svg width="1000" height="2000">
			<rect width="100%" height="100%" fill="pink" fill-opacity="70%" />
			<rect width="100" height="100" fill="black" />
		</svg>
	</svg>

	<!--Scale 10% samsung galaxy a23-->
	<svg x="400" width="108" height="240.8" viewBox="0 0 1080 2408">
		<svg width="1080" height="2408">
			<rect width="100%" height="100%" fill="pink" fill-opacity="70%" />
			<rect width="108" height="108" fill="black" />
		</svg>
	</svg>

	<!--Scale 10% Samsung 4K Monitor-->
	<svg x="520" width="384" height="216" viewBox="0 0 3840 2160">
		<svg width="3840" height="2160">
			<rect width="100%" height="100%" fill="pink" fill-opacity="70%" />
			<rect width="216" height="216" fill="black" />
		</svg>
	</svg>

	<!--Scale 10% Google Nest Hub Max-->
	<svg x="910" width="128" height="80" viewBox="0 0 1280 800">
		<svg width="1280" height="800">
			<rect width="100%" height="100%" fill="pink" fill-opacity="70%" />
			<rect width="80" height="80" fill="black" />
		</svg>
	</svg>

	<!--Scale 10% Generic square-->
	<svg x="1050" width="100" height="100" viewBox="0 0 1000 1000">
		<svg width="1000" height="1000">
			<rect width="100%" height="100%" fill="pink" fill-opacity="70%" />
			<rect width="100" height="100" fill="black" />
		</svg>
	</svg>

	<!--Scale 10% Generic Tall and Narrow-->
	<svg x="1160" width="70" height="308.8" viewBox="0 0 700 3088">
		<svg width="700" height="3088">
			<rect width="100%" height="100%" fill="pink" fill-opacity="70%" />
			<rect width="70" height="70" fill="black" />
		</svg>
	</svg>

	<!--Scale 10% Generic Wide and Low Height-->
	<svg x="1240" width="308.8" height="70" viewBox="0 0 3088 700">
		<svg width="3088" height="700">
			<rect width="100%" height="100%" fill="pink" fill-opacity="70%" />
			<rect width="70" height="70" fill="black" />
		</svg>
	</svg>
	
</svg>