<?xml version="1.0" standalone="no"?>
<svg xmlns="http://www.w3.org/2000/svg" xmlns:xlink="http://www.w3.org/1999/xlink">

	<rect width="100%" height="100%" fill="#dcdcdc" />

	<!--<rect x="2%" y="2%" width="5%" height="5%" fill="red" />
	<rect x="5%" y="10%" width="5%" height="5%" fill="red" />-->

	<svg x="2%" y="2%" viewBox="0 0 60 55" width="7%" height="7%">
		<rect width="100%" height="100%" fill="red" fill-opacity="0.4" />

		<text x="50%" y="60%" fill="blue"
              dominant-baseline="middle" text-anchor="middle"
              font-size="40" font-weight="bold">999</text>
	</svg>

	<svg x="5%" y="10%"  viewBox="0 0 60 55" width="7%" height="7%">
		<rect width="100%" height="100%" fill="red" fill-opacity="0.4" />
	</svg>

	<svg x="15%" y="20%"  viewBox="0 0 100 100" width="7%" height="7%">
		<rect width="100%" height="100%" fill="red" fill-opacity="0.4" />

		<svg x="50%" y="30%" viewBox="0 0 100 100" xmlns="http://www.w3.org/2000/svg">
			<text x="50%" y="50%" 
				  dominant-baseline="middle" 
				  text-anchor="middle">999</text>
		</svg>

		<!--<rect x="0" y="60%"
			  width="100%" height="90%" fill="blue" 
			   />-->


	</svg>

	<svg x="15%" y="30%" viewBox="0 0 100 100" >
		<rect width="100%" height="100%" fill="gray" fill-opacity="0.4" />

		<svg>
			<text x="10" y="10"
			  font-weight="bold"
			  dominant-baseline="central" text-anchor="middle" >0</text>

		</svg>
		<text x="40" y="10"
			  font-weight="bold"
			  dominant-baseline="central" text-anchor="middle" >2</text>
	</svg>

	<!--<svg x="23%" y="30%" viewBox="0 0 15 15" width="7%" height="7%">
		<rect width="100%" height="100%" fill="gray" fill-opacity="0.4" />
		<text x="50%" y="50%"
			  font-weight="bold"
			  dominant-baseline="central" text-anchor="middle" >1</text>
	</svg>

	<svg x="15%" y="36%" viewBox="0 0 15 15" width="7%" height="7%">
		<rect width="100%" height="100%" fill="gray" fill-opacity="0.4" />
		<text x="50%" y="50%"
			  font-weight="bold"
			  dominant-baseline="central" text-anchor="middle" >5</text>s
	</svg>

	<svg x="23%" y="36%" viewBox="0 0 15 15" width="7%" height="7%">
		<rect width="100%" height="100%" fill="gray" fill-opacity="0.4" />
		<text x="50%" y="50%"
			  font-weight="bold"
			  dominant-baseline="central" text-anchor="middle" >6</text>
	</svg>-->
	
</svg>
