<?xml version="1.0" standalone="no"?>
<svg xmlns="http://www.w3.org/2000/svg" xmlns:xlink="http://www.w3.org/1999/xlink" width="4096" height="4096">

	<rect width="100%" height="100%" fill="#dcdcdc"/>

	<svg x="10" y="10" width="120" height="120">

		<rect width="100%" height="100%" fill="red"/>

		<svg viewBox="0 0 1350 1350" preserveAspectRatio="xMinYMin meet">

			<rect width="100%" height="100%" fill="fuchsia"/>

			<defs>
				<style type="text/css">
					@font-face {
					font-family: SeaLife;
					src: url('./Sea-Life.otf');
					}
				</style>
			</defs>

			<svg y="150" widht="1200" height="1200">
				<rect width="100%" height="100%" fill="yellow" rx="15"/>
				<svg x="0" y="0" width="1200" height="400">
					<rect width="100%" height="100%" fill="green" fill-opacity="30%"/>
					<svg x="0" y="0">
						<text x="50%" y="50%" font-weight="bold" font-size="2500%"
							  dominant-baseline="central" text-anchor="middle"
						 text-rendering="geometricPrecision"></text>
					</svg>
				</svg>
				<svg x="0" y="400" width="1200" height="400">
					<rect width="100%" height="100%" fill="red" fill-opacity="30%"/>
					<svg x="0" y="0">
						<text x="50%" y="50%" font-weight="bold" font-size="2500%"
							  dominant-baseline="central" text-anchor="middle"
						 text-rendering="geometricPrecision"></text>
					</svg>
					<g>
						<line x1="10%" y1="10%" x2="90%" y2="90%" stroke="red" stroke-width="30" stroke-linecap="round"/>
						<line x1="10%" y1="90%" x2="90%" y2="10%" stroke="red" stroke-width="30" stroke-linecap="round"/>
					</g>
				</svg>
				<svg x="0" y="800" width="1200" height="400">
					<rect width="100%" height="100%" fill="gold" />
					<text x="50%" y="50%" font-family="SeaLife" font-size="3000%"
						fill="red"
						dominant-baseline="central" text-anchor="middle"
						text-rendering="geometricPrecision"></text>
				</svg>
			</svg>

			<svg id="current-icon" x="525" y="0" width="150" height="150" viewBox="0 0 92 92" preserveAspectRatio="xMidYMin meet">
				<rect width="100%" height="100%" fill="blue"/>
				<path fill="red" d="M68.4,7.9C62.7,2.8,54.7,0,46,0S29.3,2.8,23.6,7.9C16.6,14.1,13,23.4,13,35c0,25.1,28.9,54.6,30.2,55.8
	c0.8,0.8,1.8,1.2,2.8,1.2s2.1-0.4,2.8-1.2C50.1,89.6,79,60.1,79,35C79,23.4,75.4,14.1,68.4,7.9z M46,82.1c-2.7-3-7-8-11.2-14
	C25.8,55.3,21,43.9,21,35c0-25,19.1-27,25-27c23.2,0,25,20.7,25,27C71,52.6,53.1,74.3,46,82.1z M46,17.3c-8.8,0-15.9,7.3-15.9,16.2
	S37.2,49.6,46,49.6c8.8,0,15.9-7.3,15.9-16.2S54.8,17.3,46,17.3z M46,42.6c-4.9,0-8.9-4.1-8.9-9.2s4-9.2,8.9-9.2
	c4.9,0,8.9,4.1,8.9,9.2S50.9,42.6,46,42.6z"/>
			</svg>

			<svg id="check-icon" x="1130" y="30" width="150" height="150" viewBox="0 0 405.272 405.272">
				<rect width="100%" height="100%" fill="orange" />
				<path fill="green" d="M393.401,124.425L179.603,338.208c-15.832,15.835-41.514,15.835-57.361,0L11.878,227.836
		c-15.838-15.835-15.838-41.52,0-57.358c15.841-15.841,41.521-15.841,57.355-0.006l81.698,81.699L336.037,67.064
		c15.841-15.841,41.523-15.829,57.358,0C409.23,82.902,409.23,108.578,393.401,124.425z"/>
			</svg>
		</svg>

	</svg>
</svg>