<?xml version="1.0" standalone="no"?>
<svg xmlns="http://www.w3.org/2000/svg" xmlns:xlink="http://www.w3.org/1999/xlink" height="100%" width="100%">

	<defs>
		<style type="text/css">

			@font-face {
			font-family: SeaLife;
			src: url('./Sea-Life.otf');
			}
			.out
			{ outline-width: 5px;
			outline-style: dashed;
			outline-color: red;
			}
		</style>
	</defs>

	<rect width="100%" height="100%" fill="transparent" />

	<svg x="135" y="0" width="40" height="40" viewBox="0 0 405.272 405.272">

		<rect width="100%" height="100%" fill="transparent" />
		<path fill="green" d="M393.401,124.425L179.603,338.208c-15.832,15.835-41.514,15.835-57.361,0L11.878,227.836
		c-15.838-15.835-15.838-41.52,0-57.358c15.841-15.841,41.521-15.841,57.355-0.006l81.698,81.699L336.037,67.064
		c15.841-15.841,41.523-15.829,57.358,0C409.23,82.902,409.23,108.578,393.401,124.425z"/>
	</svg>
	
	<!--viewBox="0 0 670 940"-->
	<svg x="0" y="30" width="150" height="150" viewBox="0 0 940 940" preserveAspectRatio="xMidYMax meet" class="out">
		<rect width="100%" height="100%" fill="gray" rx="15" fill-opacity="20%"/>
		<svg x="0" y="0" width="940" height="270">
			<rect width="100%" height="100%" fill="green" fill-opacity="30%"/>
			<svg x="0" y="0">
				<text x="50%" y="50%" font-weight="bold" font-size="2000%"
					  dominant-baseline="central" text-anchor="middle"
				 text-rendering="geometricPrecision">?</text>
			</svg>
		</svg>
		<svg x="0" y="270" width="940" height="270">
			<rect width="100%" height="100%" fill="red" fill-opacity="30%"/>
			<svg x="0" y="0">
				<text x="50%" y="50%" font-weight="bold" font-size="2000%"
					  dominant-baseline="central" text-anchor="middle"
				 text-rendering="geometricPrecision">000000</text>
			</svg>

			<line x1="10%" y1="10%" x2="90%" y2="90%" stroke="red" stroke-width="30" stroke-linecap="round"/>
			<line x1="10%" y1="90%" x2="90%" y2="10%" stroke="red" stroke-width="30" stroke-linecap="round"/>
		</svg>
		<svg x="0" y="540" width="940" height="400">
			<rect width="100%" height="100%" fill="gold" />
			<text x="50%" y="50%" font-family="SeaLife" font-size="3000%"
				fill="red"
				dominant-baseline="central" text-anchor="middle"
				  text-rendering="geometricPrecision">N</text>
		</svg>
	</svg>

</svg>