<?xml version="1.0" standalone="no"?>
<svg xmlns="http://www.w3.org/2000/svg" xmlns:xlink="http://www.w3.org/1999/xlink" height="100%" width="100%">

	<rect width="100%" height="100%" fill="#dcdcdc" />

	<svg x="0" y="0">

		<rect width="100%" height="100%" fill="pink" />

	</svg>

	<svg height="20%" y="80%">
		<svg viewBox="0, 0, 500, 200" preserveAspectRatio="xMidYMax meet">
			<svg width="500" height="200">
				<!--TOP-->
				<svg x="0" y="0" width="100" height="100">
					<rect width="100%" height="100%" fill="red" fill-opacity="0.4" />
					<text x="50%" y="50%" font-weight="bold" font-size="500%" dominant-baseline="central"
						text-anchor="middle">0</text>
				</svg>

				<svg x="101" y="0" width="100" height="100">
					<rect width="100%" height="100%" fill="red" fill-opacity="0.4" />
					<text x="50%" y="50%" font-weight="bold" font-size="500%" dominant-baseline="central"
						text-anchor="middle">1</text>
				</svg>

				<svg x="202" y="0" width="100" height="100">
					<rect width="100%" height="100%" fill="red" fill-opacity="0.4" />
					<text x="50%" y="50%" font-weight="bold" font-size="500%" dominant-baseline="central"
						text-anchor="middle">2</text>
				</svg>

				<svg x="303" y="0" width="100" height="100">
					<rect width="100%" height="100%" fill="red" fill-opacity="0.4" />
					<text x="50%" y="50%" font-weight="bold" font-size="500%" dominant-baseline="central"
						text-anchor="middle">3</text>
				</svg>

				<svg x="404" y="0" width="100" height="100">
					<rect width="100%" height="100%" fill="red" fill-opacity="0.4" />
					<text x="50%" y="50%" font-weight="bold" font-size="500%" dominant-baseline="central"
						text-anchor="middle">4</text>
				</svg>

				<!--Bottom-->
				<svg x="0" y="101" width="100" height="100">
					<rect width="100%" height="100%" fill="red" fill-opacity="0.4" />
					<text x="50%" y="50%" font-weight="bold" font-size="500%" dominant-baseline="central"
						text-anchor="middle">5</text>
				</svg>

				<svg x="101" y="101" width="100" height="100">
					<rect width="100%" height="100%" fill="red" fill-opacity="0.4" />
					<text x="50%" y="50%" font-weight="bold" font-size="500%" dominant-baseline="central"
						text-anchor="middle">6</text>
				</svg>

				<svg x="202" y="101" width="100" height="100">
					<rect width="100%" height="100%" fill="red" fill-opacity="0.4" />
					<text x="50%" y="50%" font-weight="bold" font-size="500%" dominant-baseline="central"
						text-anchor="middle">7</text>
				</svg>

				<svg x="303" y="101" width="100" height="100">
					<rect width="100%" height="100%" fill="red" fill-opacity="0.4" />
					<text x="50%" y="50%" font-weight="bold" font-size="500%" dominant-baseline="central"
						text-anchor="middle">8</text>
				</svg>

				<svg x="404" y="101" width="100" height="100">
					<rect width="100%" height="100%" fill="red" fill-opacity="0.4" />
					<text x="50%" y="50%" font-weight="bold" font-size="500%" dominant-baseline="central"
						text-anchor="middle">9</text>
				</svg>
			</svg>
		</svg>
	</svg>

</svg>