<?xml version="1.0" standalone="no"?>
<svg xmlns="http://www.w3.org/2000/svg" xmlns:xlink="http://www.w3.org/1999/xlink">

	<!--
		https://www.svgrepo.com/collection/oil-industry-flat-vectors/
		https://github.com/FWeinb/grunt-svgstore
		https://icomoon.io/
	-->

	<!--<style type="text/css">
		.st0{fill:#A88C55;}
		.st1{fill:#6B5936;}
		.st2{fill:#A6A6A6;}
		.st3{fill:#4F4228;}
	</style>-->

	<style type="text/css">
		.st0{fill:#BF7D2C;}
		.st1{fill:#C9942C;}
		.st2{fill:#656A73;}
		.st3{fill:#7D828C;}
		.st4{fill:#5C6373;}
		.st5{fill:#4F4228;}
		.st6{fill:#91AAB4;}
		.st7{fill:#A88C55;}
		.st8{fill:#6B5936;}
		.st9{fill:#3E606F;}
	</style>

	<defs>

		<g id="chimney-1">
			<path class="st0" d="M24,32h-9c-2.8,0-5,2.2-5,5v21h4V38c0-1.1,0.9-2,2-2h8"/>
			<path class="st0" d="M54,42v-5c0-2.8-2.2-5-5-5h-9v4h8c1.1,0,2,0.9,2,2v4"/>
			<polyline class="st0" points="54,58 54,50 50,50 50,58  "/>
			<path class="st1" d="M24,56h16c1.1,0,2,0.9,2,2v4l0,0H22l0,0v-4C22,56.9,22.9,56,24,56z"/>
			<polyline class="st1" points="28,30 24,30 24,38 28,38  "/>
			<rect class="st1" height="4" width="8" x="8" y="58"/>
			<polyline class="st1" points="36,30 40,30 40,38 36,38  "/>
			<rect class="st1" height="4" width="8" x="48" y="58"/>
			<rect class="st0" height="38" width="8" x="28" y="18"/>
			<path class="st2" d="M43,4c-0.6,0-1.2,0.1-1.7,0.4c-1.4-2.4-4.5-3.1-6.9-1.7c-1.8,1.1-2.7,3.2-2.3,5.3c0,0-0.1,0-0.1,0   c-1.7,0-3,1.3-3,3c0,1.7,1.3,3,3,3c1.4,0,2.7-1,3-2.5c1.7,0.8,3.8,0.5,5.2-0.7c1.6,1.6,4.1,1.6,5.7,0c1.6-1.6,1.6-4.1,0-5.7   C45.1,4.4,44.1,4,43,4z"/>
			<rect class="st3" height="2" width="8" x="28" y="23"/>
			<rect class="st3" height="2" width="8" x="28" y="27"/>
			<rect class="st3" height="2" width="8" x="28" y="31"/>
			<rect class="st3" height="2" width="8" x="28" y="35"/>
			<rect class="st3" height="2" width="8" x="28" y="39"/>
			<rect class="st3" height="2" width="8" x="28" y="43"/>
			<rect class="st3" height="2" width="8" x="28" y="47"/>
			<rect class="st3" height="2" width="8" x="28" y="51"/>
			<circle class="st0" cx="52" cy="46" r="4"/>
			<polygon class="st3" points="53,45 53,42 51,42 51,45 48,45 48,47 56,47 56,45  "/>
			<path class="st1" d="M52,51c-2.8,0-5-2.2-5-5s2.2-5,5-5s5,2.2,5,5C57,48.8,54.8,51,52,51z M52,43c-1.7,0-3,1.3-3,3s1.3,3,3,3   s3-1.3,3-3S53.7,43,52,43z"/>
		</g>
		
		<g id="factory-1">
			<polygon class="st0" points="42,34 42,38 50,38 50,34 62,22 62,16 60,16  "/>
			<path class="st1" d="M54,31h-8v-2h7v-7c0-0.6,0.4-1,1-1h8v2h-7v7C55,30.6,54.6,31,54,31z"/>
			<path class="st2" d="M60,35c-1.7,0-3-1.3-3-3h2c0,0.6,0.4,1,1,1s1-0.4,1-1s-0.4-1-1-1s-1-0.4-1-1v-6h2v5.2c1.6,0.6,2.4,2.3,1.8,3.8   C62.4,34.2,61.3,35,60,35z"/>
			<rect class="st1" height="2" width="8" x="42" y="33"/>
			<path class="st1" d="M50,39h-8c-0.6,0-1-0.4-1-1v-4c0-0.3,0.1-0.5,0.3-0.7l18-18c0.2-0.2,0.4-0.3,0.7-0.3h2c0.6,0,1,0.4,1,1v6   c0,0.3-0.1,0.5-0.3,0.7L51,34.4V38C51,38.6,50.6,39,50,39z M43,37h6v-3c0-0.3,0.1-0.5,0.3-0.7L61,21.6V17h-0.6L43,34.4V37z"/>
			<rect class="st3" height="4" width="2" x="28" y="6"/>
			<polyline class="st4" points="26,13 26,9 32,9 32,13  "/>
			<polygon class="st3" points="36,42 22,42 24,12 34,12  "/>
			<rect class="st4" height="10.2" transform="matrix(0.1961 -0.9806 0.9806 0.1961 5.6618 42.9068)" width="2" x="28" y="12.9"/>
			<rect class="st4" height="2" width="12" x="23" y="22"/>
			<rect class="st4" height="2" width="12" x="23" y="32"/>
			<rect class="st4" height="2" transform="matrix(0.9864 -0.1641 0.1641 0.9864 -4.2013 5.138)" width="12.2" x="22.9" y="27"/>
			<rect class="st4" height="14.1" transform="matrix(0.1414 -0.9899 0.9899 0.1414 -12.7194 61.3352)" width="2" x="28" y="30.9"/>
			<path class="st4" d="M36,43H22c-0.6,0-1-0.4-1-1c0,0,0,0,0-0.1l2-30c0-0.5,0.5-0.9,1-0.9h10c0.5,0,1,0.4,1,0.9l2,30   C37,42.5,36.6,43,36,43C36,43,36,43,36,43z M23.1,41h11.9l-1.9-28h-8.1L23.1,41z"/>
			<polyline class="st3" points="8,6 8,2 14,2 14,6  "/>
			<rect class="st0" height="30" width="10" x="6" y="6"/>
			<path class="st1" d="M15.3,36.7l-10-10c-0.4-0.4-0.4-1,0-1.4l9.3-9.3L5.3,6.7l1.4-1.4l10,10c0.4,0.4,0.4,1,0,1.4L7.4,26l9.3,9.3   L15.3,36.7z"/>
			<path class="st1" d="M6.7,36.7l-1.4-1.4l9.3-9.3l-9.3-9.3c-0.4-0.4-0.4-1,0-1.4l10-10l1.4,1.4L7.4,16l9.3,9.3c0.4,0.4,0.4,1,0,1.4   L6.7,36.7z"/>
			<path class="st1" d="M16,37H6c-0.6,0-1-0.4-1-1V6c0-0.6,0.4-1,1-1h10c0.6,0,1,0.4,1,1v30C17,36.6,16.6,37,16,37z M7,35h8V7H7V35z"/>
			<rect class="st5" height="6" width="14" x="4" y="36"/>
			<polyline class="st5" points="62,42 58,38 40,38 40,42  "/>
			<rect class="st6" height="8" width="60" x="2" y="54"/>
			<polyline class="st7" points="16,60.7 16,46 6,46 6,56.9  "/>
			<rect class="st8" height="4" width="60" x="2" y="42"/>
			<polyline class="st8" points="48,61 48,46 58,46 58,56.8  "/>
			<rect class="st5" height="4" width="10" x="6" y="46"/>
			<rect class="st5" height="4" width="10" x="48" y="46"/>
			<polyline class="st7" points="52,59 52,50 48,50 48,61  "/>
			<polyline class="st8" points="12,59 12,50 16,50 16,60.5  "/>
			<path class="st6" d="M44,12c-1.1,0-2-0.9-2-2s0.9-2,2-2c0.2,0,0.4,0,0.6,0.1c-1.2-1.9-0.6-4.3,1.3-5.5c1.9-1.2,4.3-0.6,5.5,1.3   C51.8,4.5,52,5.2,52,6c0,0.1,0,0.1,0,0.2C52.3,6.1,52.7,6,53,6c1.7,0,3,1.3,3,3s-1.3,3-3,3H44z"/>
			<path class="st9" d="M61.6,62l-3.1-3.1c-0.6-0.6-1.3-0.9-2.1-0.9h-0.7c-0.8,0-1.6,0.3-2.1,0.9l-1.7,1.7c-0.9,0.9-2.2,1.5-3.5,1.5   h-0.7c-1.3,0-2.6-0.5-3.5-1.5l-1.7-1.7c-0.6-0.6-1.3-0.9-2.1-0.9h-0.7c-0.8,0-1.6,0.3-2.1,0.9l-1.7,1.7c-0.9,0.9-2.2,1.5-3.5,1.5   h-0.7c-1.3,0-2.6-0.5-3.5-1.5l-1.7-1.7c-0.6-0.6-1.3-0.9-2.1-0.9h-0.7c-0.8,0-1.6,0.3-2.1,0.9l-1.7,1.7c-0.9,0.9-2.2,1.5-3.5,1.5   h-0.7c-1.3,0-2.6-0.5-3.5-1.5l-1.7-1.7C9.9,58.3,9.1,58,8.3,58H7.7c-0.8,0-1.6,0.3-2.1,0.9L2.4,62H2v-2.4l2.1-2.1   C5.1,56.5,6.3,56,7.7,56h0.7c1.3,0,2.6,0.5,3.5,1.5l1.7,1.7c0.6,0.6,1.3,0.9,2.1,0.9h0.7c0.8,0,1.6-0.3,2.1-0.9l1.7-1.7   c0.9-0.9,2.2-1.5,3.5-1.5h0.7c1.3,0,2.6,0.5,3.5,1.5l1.7,1.7c0.6,0.6,1.3,0.9,2.1,0.9h0.7c0.8,0,1.6-0.3,2.1-0.9l1.7-1.7   c0.9-0.9,2.2-1.5,3.5-1.5h0.7c1.3,0,2.6,0.5,3.5,1.5l1.7,1.7c0.6,0.6,1.3,0.9,2.1,0.9h0.7c0.8,0,1.6-0.3,2.1-0.9l1.7-1.7   c0.9-0.9,2.2-1.5,3.5-1.5h0.7c1.3,0,2.6,0.5,3.5,1.5l2.1,2.1V62H61.6z"/>
		</g>

	</defs>

	<svg x="10" y="10" with="100" height="100">
		<use xlink:href="#chimney-1"></use>
	</svg>
	
	<svg x="110" y="10" with="100" height="100">
		<use xlink:href="#factory-1"></use>
	</svg>
</svg>