<svg xmlns="http://www.w3.org/2000/svg">

	<!--Arcs-->

	<rect width="100%" height="100%" fill="#dcdcdc" />

	<svg x="10" y="10" width="320" height="320" >
		<path d="M 10 315
           L 110 215
           A 30 50 0 0 1 162.55 162.45
           L 172.55 152.45
           A 30 50 -45 0 1 215.1 109.9
           L 315 10" stroke="black" fill="green" stroke-width="2" fill-opacity="0.5"/>
	</svg>

	<svg x="400" y="10"  width="320" height="320">
		<path d="M 10 315
           L 110 215
           A 36 60 0 0 1 150.71 170.29
           L 172.55 152.45
           A 30 50 -45 0 1 215.1 109.9
           L 315 10" stroke="black" fill="green" stroke-width="2" fill-opacity="0.5"/>
		<circle cx="150.71" cy="170.29" r="2" fill="red"/>
		<circle cx="110" cy="215" r="2" fill="red"/>
		<ellipse cx="144.931" cy="229.512" rx="36" ry="60" fill="transparent" stroke="blue"/>
		<ellipse cx="115.779" cy="155.778" rx="36" ry="60" fill="transparent" stroke="blue"/>
	</svg>

	<svg x="700" y="10" width="325" height="325" >
		<path d="M 80 80
           A 45 45, 0, 0, 0, 125 125
           L 125 80 Z" fill="green"/>
		<path d="M 230 80
           A 45 45, 0, 1, 0, 275 125
           L 275 80 Z" fill="red"/>
		<path d="M 80 230
           A 45 45, 0, 0, 1, 125 275
           L 125 230 Z" fill="purple"/>
		<path d="M 230 230
           A 45 45, 0, 1, 1, 275 275
           L 275 230 Z" fill="blue"/>
	</svg>

</svg>
