<?xml version="1.0" standalone="no"?>
<svg xmlns="http://www.w3.org/2000/svg">

	<!--Basic Transformations-->

	<rect width="100%" height="100%" fill="#dcdcdc" />

	<svg width="30" height="10">
		<g fill="red">
			<rect x="0" y="0" width="10" height="10" />
			<rect x="20" y="0" width="10" height="10" />
		</g>
	</svg>
	
	<!--Translation-->
	<svg x="10" y="50" width="40" height="50" style="background-color:#bff;">
		<rect x="0" y="0" width="10" height="10" transform="translate(30,40)" />
	</svg>

	<!--Rotation-->
	<svg x="10" y="110" width="31" height="31">
		<rect x="12" y="-10" width="20" height="20" transform="rotate(45)" />
	</svg>

	<!--Multiple transformations-->
	<svg x="10" y="150" width="40" height="55" style="background-color:#bff;">
		<rect x="0" y="0" width="10" height="10" transform="translate(30,40) rotate(45)" />
	</svg>

	<!--Skewing-->
	<svg x="10" y="220" width="80" height="80" style="background-color:#bff;">
		<rect x="0" y="0" width="10" height="10" 
			  transform="skewX(45)
						 skewY(45)" />
	</svg>

	<!--Scaling-->
	<svg x="10" y="300" width="80" height="80" style="background-color:#bff;">
		<rect x="0" y="0" width="10" height="10" transform="scale(2,3)" />
	</svg>
	
	<!--Complex transformations with matrix()-->
	<svg x="10" y="400">
		<rect x="10" y="10" width="30" height="20" fill="green" />

		<!--
		  In the following example we are applying the matrix:
		  [a c e]    [3 -1 30]
		  [b d f] => [1  3 40]
		  [0 0 1]    [0  0  1]

		  which transform the rectangle as such:

		  top left corner: oldX=10 oldY=10
		  newX = a * oldX + c * oldY + e = 3 * 10 - 1 * 10 + 30 = 50
		  newY = b * oldX + d * oldY + f = 1 * 10 + 3 * 10 + 40 = 80

		  top right corner: oldX=40 oldY=10
		  newX = a * oldX + c * oldY + e = 3 * 40 - 1 * 10 + 30 = 140
		  newY = b * oldX + d * oldY + f = 1 * 40 + 3 * 10 + 40 = 110

		  bottom left corner: oldX=10 oldY=30
		  newX = a * oldX + c * oldY + e = 3 * 10 - 1 * 30 + 30 = 30
		  newY = b * oldX + d * oldY + f = 1 * 10 + 3 * 30 + 40 = 140

		  bottom right corner: oldX=40 oldY=30
		  newX = a * oldX + c * oldY + e = 3 * 40 - 1 * 30 + 30 = 120
		  newY = b * oldX + d * oldY + f = 1 * 40 + 3 * 30 + 40 = 170
		  -->
		<rect x="10" y="10" width="30" height="20" fill="red"
			  transform="matrix(3 1 -1 3 30 40)" />
	</svg>
	
	<!--Effects on Coordinate Systems-->
	<svg x="10" y="600" width="100" height="100">
		<g transform="scale(2)">
			<rect width="50" height="50" />
		</g>
	</svg>

	<!--Embedding SVG in SVG-->
	<svg x="10" y="750" width="100" height="100">
		<svg width="100" height="100" viewBox="0 0 50 50">
			<rect width="50" height="50" />
		</svg>
	</svg>

</svg>
