<?xml version="1.0" standalone="no"?>
<svg viewBox="0 0 1500 1000" preserveAspectRatio="none"
     xmlns="http://www.w3.org/2000/svg">

	<rect width="100%" height="100%" fill="#dcdcdc" />

	<svg width="100%" height="100%">

		<!-- Left Column -->
		<svg x="0" y="0" width="50%" height="100%" overflow="visible">

			<!-- "Parent" Rectangle -->
			<rect x="0" y="0" width="100%" height="100%" fill="#363636"></rect>

			<!-- "Child" Rectangle with Text -->
			<svg x="50%" y="50%" width="116" height="40" overflow="visible">
				<rect x="0" y="0" width="100%" height="100%" rx="20" ry="20" fill="#FFFFFF" transform="translate(-58, -25)"></rect>
				<text x="0" y="0" text-color="#393939" transform="translate(-29, 0)">Sign Up</text>
			</svg>

		</svg>

		<!-- Right Column -->
		<svg x="50%" y="0" width="50%" height="100%" overflow="visible">

			<!-- "Parent" Rectangle -->
			<rect x="0" y="0" width="100%" height="100%" fill="#999999"></rect>

			<!-- "Child" Rectangle with Text -->
			<svg x="50%" y="50%" width="100" height="40" overflow="visible">
				<rect x="0" y="0" width="100%" height="100%" rx="20" ry="20" fill="#FFFFFF" transform="translate(-50, -25)"></rect>
				<text x="0" y="0" text-color="#393939" transform="translate(-25, 0)">Sign In</text>
			</svg>

		</svg>

	</svg>

	<!--<svg width="750" height="500" style="background: gray">
		<svg x="200" y="200">
			<circle cx="50" cy="50" r="50" style="fill: red" />
		</svg>
		<circle cx="50" cy="50" r="50" style="fill: yellow" />
	</svg>-->

	<!--<svg width="750" height="500" style="background: gray">
		<svg x="100" y="100">
			<rect x="0" y="0" width="142" height="142" style="fill: yellow" />
			<rect x="50" y="-50" width="100" height="100" style="fill: black; transform: rotate(45deg)" />
		</svg>
	</svg>-->

	<!--<svg width="750" height="500" style="background: gray">
		<svg x="100" y="100" style="fill: yellow; stroke: red">
			<rect x="0" y="0" width="142" height="142" />
			<rect x="100" y="-50" width="100" height="100" style="transform: rotate(45deg)" />
		</svg>
	</svg>-->
	
</svg>
