<?xml version="1.0" standalone="no"?>
<svg xmlns="http://www.w3.org/2000/svg" xmlns:xlink="http://www.w3.org/1999/xlink"
     width="5000" height="5000">

	<defs>
		<svg id="close" width="100" height="100" x="2988" y="0" viewBox="0 0 32 32">
			<path d="M16 0c-8.836 0-16 7.163-16 16s7.163 16 16 16c8.837 0 16-7.163 16-16s-7.163-16-16-16zM16 30.032c-7.72 0-14-6.312-14-14.032s6.28-14 14-14 14 6.28 14 14-6.28 14.032-14 14.032zM21.657 10.344c-0.39-0.39-1.023-0.39-1.414 0l-4.242 4.242-4.242-4.242c-0.39-0.39-1.024-0.39-1.415 0s-0.39 1.024 0 1.414l4.242 4.242-4.242 4.242c-0.39 0.39-0.39 1.024 0 1.414s1.024 0.39 1.415 0l4.242-4.242 4.242 4.242c0.39 0.39 1.023 0.39 1.414 0s0.39-1.024 0-1.414l-4.242-4.242 4.242-4.242c0.391-0.391 0.391-1.024 0-1.414z"></path>
		</svg>
		<svg id="rect01" x="2988">
			<rect y="110" width="100" height="100" fill="gold" />
		</svg>
	</defs>

	<svg width="3088" height="1440" viewbox="0 0 1440 3088">
		<rect width="100%" height="100%" fill="pink" />

		<!--transform="matrix(.323834,0,0,.323834,0,0)"
	  transform="scale(2) translate(-1600 0)"
    translate(-1168 0)
    1352
	  -->

		<rect width="640" height="480" fill="red"/>
		<rect y="490" width="996" height="480" fill="blue"/>

		<use xlink:href="#close"/>
    <use xlink:href="#close" transform="scale(.333)"/>
		<use xlink:href="#close" transform="translate(-388 0) scale(.333) "/>

		<svg id="close" width="50" height="50" x="996" y="40" viewBox="0 0 32 32">
			<path d="M16 0c-8.836 0-16 7.163-16 16s7.163 16 16 16c8.837 0 16-7.163 16-16s-7.163-16-16-16zM16 30.032c-7.72 0-14-6.312-14-14.032s6.28-14 14-14 14 6.28 14 14-6.28 14.032-14 14.032zM21.657 10.344c-0.39-0.39-1.023-0.39-1.414 0l-4.242 4.242-4.242-4.242c-0.39-0.39-1.024-0.39-1.415 0s-0.39 1.024 0 1.414l4.242 4.242-4.242 4.242c-0.39 0.39-0.39 1.024 0 1.414s1.024 0.39 1.415 0l4.242-4.242 4.242 4.242c0.39 0.39 1.023 0.39 1.414 0s0.39-1.024 0-1.414l-4.242-4.242 4.242-4.242c0.391-0.391 0.391-1.024 0-1.414z"></path>
		</svg>

		<use xlink:href="#rect01" transform="translate(-2348 0)"/>

	</svg>

</svg>
