<?xml version="1.0" standalone="no"?>
<svg xmlns="http://www.w3.org/2000/svg" xmlns:xlink="http://www.w3.org/1999/xlink">

  <!--Translation-->
  <svg x="0" width="300" height="300" viewBox="0 0 100 100" >
    <g fill="none">
      <!-- no translation -->
      <circle cx="15" cy="15" r="10" stroke="blue" />
      <!-- horizontal translation -->
      <circle cx="15" cy="15" r="10" stroke="black" transform="translate(22)" />
      <circle cx="15" cy="15" r="10" stroke="red" transform="translate(44)" />
      <!-- Both horizontal and vertical translation -->
      <circle cx="15" cy="15" r="10" stroke="green" transform="translate(33,13)" />
      <circle cx="15" cy="15" r="10" stroke="yellow" transform="translate(11,13)" />
    </g>
  </svg>

  <!--Scaling-->
  <svg x="300" width="300" height="300" viewBox="-50 -50 200 200" >
    <!-- uniform scale -->
    <circle cx="0" cy="0" r="10" fill="#B0C4DE" transform="scale(4)" />
    <circle cx="0" cy="0" r="10" fill="#DDA0DD" transform="scale(3)" />
    <circle cx="0" cy="0" r="10" fill="#FFB6C1" transform="scale(2)" />
    <!-- no scale -->
    <circle cx="0" cy="0" r="10" fill="#5F9EA0" />
    <g transform="translate(100)">
      <!-- uniform scale -->
      <circle cx="0" cy="0" r="10" fill="#B0C4DE" transform="scale(4)" />
      <!-- vertical scale -->
      <circle cx="0" cy="0" r="10" fill="#DDA0DD" transform="scale(1,4)" />
      <!-- horizontal scale -->
      <circle cx="0" cy="0" r="10" fill="#FFB6C1" transform="scale(4,1)" />
      <!-- no scale -->
      <circle cx="0" cy="0" r="10" fill="#5F9EA0" />
    </g>
  </svg>

  <!--Rotation-->
  <svg y="300" width="200" height="200" viewBox="0 0 450 450" >
    <rect x="100" y="250" width="200" height="30" fill="CadetBlue" />
    <rect x="100" y="250" width="200" height="30" fill="#DDA0DD" transform ="rotate(-45 200 265)" />
    <rect x="100" y="250" width="200" height="30" fill="Pink" transform ="rotate(-90 200 265)" />
    <rect x="100" y="250" width="200" height="30" fill="#B0C4DE" transform ="rotate(45 200 265)" />
    <rect x="100" y="250" width="200" height="30" fill="CadetBlue" transform ="rotate(-35)" />
  </svg>

  <svg y="500" width="200" height="200"  viewBox="0 0 100 100">
    <circle cx="20" cy="20" r="15" stroke="blue" fill="none" />
    <circle cx="20" cy="20" r="15" stroke="grey" stroke-opacity="0.7" fill="none" transform="skewX(55)" />
  </svg>

  <svg y="500" x="220" width="200" height="200" viewBox="0 0 200 200">
    <rect x="20" y="20" width="30" height="30" stroke="blue" stroke-opacity="1" fill="none" />
    <rect x="20" y="20" width="30" height="30" stroke="grey" stroke-opacity="0.5" fill="none" transform="skewY(35)" />
  </svg>

</svg>
