<?xml version="1.0" standalone="no"?>
<svg xmlns="http://www.w3.org/2000/svg" xmlns:xlink="http://www.w3.org/1999/xlink">

	<svg width="150px" height="150px" viewBox="0 0 150 150">
		<g style="stroke: black; fill: none;">
			<!-- single line -->
			<path d="M 10 10 L 100 10"/>
			<!-- a right angle -->
			<path d="M 10, 20 L 100, 20 L 100,50"/>
			<!-- two 30-degree angles -->
			<path d="M 40 60 L 10, 60 L 40 42.68 M 60, 60 L 90 60 L 60, 42.68"/>
		</g>
	</svg>

	<svg x="160" style="stroke: black; fill: none;">
		<!-- rectangle; all four lines -->
		<path d="M 10, 10 L 40, 10 L 40, 30 L 10, 30 L 10, 10"/>
		<!-- rectangle with closepath -->
		<path d="M 60 10 L 90 10 L 90 30 L 60 30 Z"/>
		<!-- two 30-degree triangles -->
		<path d="M 40 60 L 10 60 L 40 42.68 Z M 60 60 L 90 60 L 60 42.68 Z"/>
	</svg>

	<svg x="320" style="stroke: gray; stroke-width: 8; fill: none;">
		<!-- rectangle; all four lines -->
		<path d="M 10 10 L 40 10 L 40 30 L 10 30 L 10 10"/>
		<!-- rectangle with closepath -->
		<path d="M 60 10 L 90 10 L 90 30 L 60 30 Z"/>
	</svg>

	<!-- Relative moveto and lineto -->
	<svg x="480" style="stroke: gray; stroke-width: 4; fill: none;">
		<path d="M 10 10 L 20 10 L 20 30 M 40 40 L 55 35" style="stroke: black;"/>
		<path d="M 10 10 l 10 0 l 0 20 m 20 10 l 15 -5" style="stroke: black;"/>
	</svg>

</svg>
